<svg width="74" height="75" viewBox="0 0 74 75" fill="none" xmlns="http://www.w3.org/2000/svg">
<path d="M20.1453 37.3651C20.1453 34.9596 20.5865 32.7162 21.4775 30.6348C22.3601 28.5535 23.5651 26.7536 25.0755 25.2352C26.586 23.7169 28.368 22.5312 30.4216 21.6696C32.4752 20.8081 34.6815 20.3986 37.049 20.4242C39.4166 20.4583 41.6229 20.9275 43.6765 21.8317C45.7301 22.7359 47.5121 23.9728 49.0226 25.5423C50.533 27.1033 51.7211 28.9288 52.5951 31.0102C53.4692 33.0915 53.8849 35.3008 53.851 37.6466C53.8171 40.0266 53.3503 42.2444 52.4508 44.3087C51.5513 46.373 50.3294 48.1729 48.785 49.7083C47.2405 51.2437 45.45 52.4379 43.3965 53.2995C41.3429 54.161 39.1281 54.5875 36.769 54.5875C34.41 54.5875 32.2461 54.144 30.2095 53.2483C28.1729 52.3612 26.4078 51.1328 24.9143 49.5889C23.4208 48.0449 22.2497 46.2195 21.4096 44.121C20.5695 42.0226 20.1453 39.7706 20.1453 37.3651ZM26.1193 37.5955C26.1193 39.1309 26.4163 40.581 27.0018 41.9629C27.5958 43.3363 28.385 44.5475 29.3863 45.5797C30.3792 46.6118 31.5333 47.4222 32.8401 48.0193C34.1469 48.6164 35.547 48.915 37.0406 48.915C38.5001 48.8809 39.8918 48.5567 41.1986 47.9255C42.5054 47.3028 43.651 46.4668 44.6269 45.4176C45.6113 44.3684 46.375 43.1486 46.935 41.7582C47.4951 40.3678 47.7582 38.9006 47.7327 37.3737C47.7327 35.8382 47.4357 34.3881 46.8417 33.0062C46.2477 31.6329 45.4585 30.4301 44.4572 29.415C43.4644 28.3999 42.3018 27.5896 40.978 27.001C39.6542 26.4039 38.2625 26.1053 36.803 26.1053C35.3434 26.1394 33.9517 26.4551 32.6449 27.0692C31.3381 27.6749 30.201 28.5108 29.2336 29.56C28.2662 30.6092 27.5025 31.8205 26.9424 33.1939C26.3823 34.5672 26.1023 36.043 26.1023 37.604L26.1193 37.5955Z" fill="#FCA311"/>
<path d="M0 37.2028C0 31.9141 0.975873 26.9837 2.91913 22.4201C4.86239 17.8564 7.493 13.9069 10.811 10.5717C14.1204 7.23636 18.0324 4.62612 22.5469 2.74096C27.0529 0.84726 31.9068 -0.0569377 37.1001 0.00277343C42.2934 0.0710148 47.1473 1.10317 51.6533 3.09069C56.1593 5.08675 60.0713 7.79935 63.3892 11.2285C66.7072 14.6661 69.3123 18.6668 71.2301 23.2304C73.1394 27.8026 74.0644 32.6563 73.9965 37.8085C73.9286 43.0289 72.9018 47.9082 70.9247 52.4377C68.939 56.9672 66.2659 60.9252 62.8801 64.2861C59.5027 67.6555 55.5483 70.2828 51.0423 72.168C46.5363 74.0532 41.6824 75 36.4891 75C31.2958 75 26.5607 74.019 22.0886 72.0656C17.6166 70.1122 13.7386 67.4252 10.4546 64.0302C7.17903 60.6352 4.6163 56.626 2.76639 52.0283C0.924965 47.4305 0 42.483 0 37.1943V37.2028ZM13.1191 37.7146C13.1191 41.0841 13.764 44.2743 15.0624 47.294C16.3607 50.3137 18.1003 52.958 20.2896 55.2271C22.479 57.4961 25.0078 59.2789 27.876 60.584C30.7442 61.8891 33.8246 62.546 37.1001 62.546C40.3077 62.4777 43.3541 61.7612 46.2224 60.3793C49.0906 59.0059 51.6024 57.172 53.7578 54.8688C55.9132 52.5657 57.6019 49.8957 58.8323 46.8334C60.0628 43.7796 60.6398 40.5637 60.5719 37.2028C60.5719 33.8419 59.9185 30.6431 58.6202 27.6235C57.3218 24.6038 55.5823 21.9765 53.3929 19.7416C51.2036 17.5067 48.6578 15.7409 45.7556 14.4358C42.8535 13.1307 39.7901 12.4739 36.5825 12.4739C33.3663 12.5421 30.3284 13.2501 27.4602 14.5894C24.592 15.9286 22.0971 17.7455 19.9757 20.0487C17.8542 22.3518 16.1825 25.0132 14.952 28.0329C13.7216 31.0526 13.1106 34.2855 13.1106 37.7146H13.1191Z" fill="#14213D"/>
</svg>
